<svg version="1.0" preserveAspectRatio="xMidYMid meet" viewBox="324 972.000004752 1647 315.00000154" zoomAndPan="magnify" xmlns:xlink="http://www.w3.org/1999/xlink" xmlns="http://www.w3.org/2000/svg" style="max-height: 500px" width="1647" height="315.00000154"><defs><g/><clipPath id="b9619a1f15"><rect height="345" y="0" width="1598" x="0"/></clipPath></defs><g transform="matrix(1, 0, 0, 1, 336, 949)"><g clip-path="url(#b9619a1f15)"><g fill-opacity="1" fill="#faf1e1"><g transform="translate(10.89428, 237.576944)"><g><path d="M 177.734375 -36.65625 C 179.578125 -32.582031 180.867188 -28.925781 181.609375 -25.6875 C 182.359375 -22.445312 182.734375 -18.601562 182.734375 -14.15625 C 182.734375 -4.34375 180.554688 4.910156 176.203125 13.609375 C 171.847656 22.304688 165.875 29.894531 158.28125 36.375 C 150.695312 42.851562 141.859375 47.988281 131.765625 51.78125 C 121.679688 55.582031 110.992188 57.484375 99.703125 57.484375 C 93.210938 57.484375 87.515625 56.925781 82.609375 55.8125 C 77.703125 54.707031 72.566406 52.765625 67.203125 49.984375 C 63.679688 50.910156 60.625 51.507812 58.03125 51.78125 C 55.445312 52.0625 52.582031 52.203125 49.4375 52.203125 C 41.65625 52.203125 34.660156 51.179688 28.453125 49.140625 C 22.253906 47.109375 16.929688 44.148438 12.484375 40.265625 C 8.046875 36.378906 4.625 31.75 2.21875 26.375 C -0.183594 21.007812 -1.390625 14.992188 -1.390625 8.328125 C -1.390625 -2.222656 1.613281 -12.21875 7.625 -21.65625 C 13.644531 -31.101562 22.210938 -39.617188 33.328125 -47.203125 C 38.878906 -50.722656 44.847656 -54.007812 51.234375 -57.0625 C 57.617188 -60.125 64.144531 -62.671875 70.8125 -64.703125 C 77.476562 -66.742188 84.1875 -68.363281 90.9375 -69.5625 C 97.695312 -70.769531 104.132812 -71.375 110.25 -71.375 C 121.539062 -71.375 131.582031 -69.753906 140.375 -66.515625 C 149.164062 -63.273438 157.914062 -57.953125 166.625 -50.546875 C 168.289062 -53.691406 169.628906 -56.1875 170.640625 -58.03125 C 171.660156 -59.882812 173.097656 -62.476562 174.953125 -65.8125 C 165.515625 -68.78125 158.203125 -73.734375 153.015625 -80.671875 C 147.828125 -87.617188 145.234375 -95.8125 145.234375 -105.25 C 145.234375 -112.84375 147.035156 -120.25 150.640625 -127.46875 C 154.253906 -134.6875 159.300781 -140.890625 165.78125 -146.078125 C 169.675781 -149.222656 173.425781 -151.859375 177.03125 -153.984375 C 180.644531 -156.117188 184.859375 -157.925781 189.671875 -159.40625 C 194.484375 -160.882812 200.40625 -162.222656 207.4375 -163.421875 C 214.476562 -164.628906 223.367188 -165.972656 234.109375 -167.453125 C 240.585938 -168.378906 246.738281 -169.394531 252.5625 -170.5 C 258.394531 -171.613281 263.347656 -172.726562 267.421875 -173.84375 C 276.304688 -179.394531 283.390625 -183.421875 288.671875 -185.921875 C 293.953125 -188.421875 298.070312 -189.671875 301.03125 -189.671875 C 302.507812 -189.671875 303.25 -189.207031 303.25 -188.28125 C 303.25 -187.539062 302.226562 -186.519531 300.1875 -185.21875 C 298.15625 -183.925781 295.472656 -182.539062 292.140625 -181.0625 C 288.804688 -179.582031 285.007812 -178.054688 280.75 -176.484375 C 276.5 -174.910156 272.054688 -173.472656 267.421875 -172.171875 C 259.273438 -165.140625 252.054688 -158.289062 245.765625 -151.625 C 239.472656 -144.957031 233.457031 -137.550781 227.71875 -129.40625 C 221.976562 -121.257812 216.332031 -112.003906 210.78125 -101.640625 C 205.226562 -91.273438 199.207031 -79.054688 192.71875 -64.984375 C 199.382812 -64.796875 205.679688 -65.628906 211.609375 -67.484375 C 217.535156 -69.335938 222.8125 -72.019531 227.4375 -75.53125 C 232.0625 -79.050781 235.945312 -83.21875 239.09375 -88.03125 C 242.25 -92.84375 244.289062 -98.210938 245.21875 -104.140625 C 245.582031 -105.617188 246.132812 -106.359375 246.875 -106.359375 C 247.613281 -106.359375 247.984375 -105.894531 247.984375 -104.96875 C 247.984375 -103.113281 247.378906 -100.335938 246.171875 -96.640625 C 244.972656 -92.941406 243.632812 -89.976562 242.15625 -87.75 C 237.15625 -79.789062 230.257812 -73.679688 221.46875 -69.421875 C 212.675781 -65.160156 202.632812 -63.03125 191.34375 -63.03125 L 189.390625 -59.421875 L 179.390625 -39.71875 Z M 263.265625 -171.0625 C 260.296875 -170.320312 257.789062 -169.71875 255.75 -169.25 C 253.71875 -168.789062 251.867188 -168.328125 250.203125 -167.859375 C 248.546875 -167.398438 246.789062 -166.984375 244.9375 -166.609375 C 243.082031 -166.242188 240.953125 -165.785156 238.546875 -165.234375 C 230.210938 -163.378906 222.941406 -161.570312 216.734375 -159.8125 C 210.535156 -158.0625 204.984375 -156.164062 200.078125 -154.125 C 195.171875 -152.09375 190.820312 -149.867188 187.03125 -147.453125 C 183.238281 -145.046875 179.488281 -142.269531 175.78125 -139.125 C 168.75 -133.207031 163.101562 -126.40625 158.84375 -118.71875 C 154.582031 -111.03125 152.453125 -103.859375 152.453125 -97.203125 C 152.453125 -83.679688 160.226562 -73.867188 175.78125 -67.765625 C 184.113281 -82.390625 191.75 -94.976562 198.6875 -105.53125 C 205.632812 -116.082031 212.441406 -125.289062 219.109375 -133.15625 C 225.773438 -141.03125 232.625 -147.925781 239.65625 -153.84375 C 246.6875 -159.769531 254.554688 -165.507812 263.265625 -171.0625 Z M 70.53125 49.15625 C 75.53125 51.375 80.296875 52.945312 84.828125 53.875 C 89.367188 54.800781 94.601562 55.265625 100.53125 55.265625 C 111.445312 55.265625 121.765625 53.410156 131.484375 49.703125 C 141.210938 46.003906 149.6875 40.960938 156.90625 34.578125 C 164.125 28.191406 169.859375 20.738281 174.109375 12.21875 C 178.367188 3.695312 180.5 -5.28125 180.5 -14.71875 C 180.5 -18.414062 180.175781 -21.65625 179.53125 -24.4375 C 178.882812 -27.21875 177.820312 -30.550781 176.34375 -34.4375 C 165.226562 -13.695312 150.597656 3.796875 132.453125 18.046875 C 114.316406 32.304688 93.675781 42.675781 70.53125 49.15625 Z M 165.515625 -48.328125 C 157.179688 -55.359375 148.753906 -60.492188 140.234375 -63.734375 C 131.722656 -66.972656 122.191406 -68.59375 111.640625 -68.59375 C 98.492188 -68.59375 85.671875 -66.234375 73.171875 -61.515625 C 60.679688 -56.796875 49.53125 -50.546875 39.71875 -42.765625 C 29.90625 -34.992188 21.988281 -26.203125 15.96875 -16.390625 C 9.945312 -6.578125 6.9375 3.421875 6.9375 13.609375 C 6.9375 25.273438 10.820312 34.207031 18.59375 40.40625 C 26.375 46.601562 37.578125 49.703125 52.203125 49.703125 C 54.609375 49.703125 56.550781 49.609375 58.03125 49.421875 C 59.519531 49.242188 61.5625 48.96875 64.15625 48.59375 C 56.007812 43.78125 49.804688 38.085938 45.546875 31.515625 C 41.285156 24.941406 39.15625 17.769531 39.15625 10 C 39.15625 3.332031 40.820312 -3.050781 44.15625 -9.15625 C 47.488281 -15.269531 51.976562 -20.640625 57.625 -25.265625 C 63.269531 -29.898438 69.75 -33.601562 77.0625 -36.375 C 84.375 -39.15625 92.101562 -40.546875 100.25 -40.546875 C 103.03125 -40.546875 105.945312 -40.265625 109 -39.703125 C 112.050781 -39.148438 114.828125 -38.457031 117.328125 -37.625 C 119.828125 -36.789062 121.910156 -35.910156 123.578125 -34.984375 C 125.242188 -34.066406 126.078125 -33.144531 126.078125 -32.21875 C 126.078125 -31.476562 125.707031 -31.109375 124.96875 -31.109375 C 124.59375 -31.109375 124.222656 -31.289062 123.859375 -31.65625 C 117.742188 -35.914062 110.148438 -38.046875 101.078125 -38.046875 C 94.234375 -38.046875 87.523438 -36.515625 80.953125 -33.453125 C 74.378906 -30.398438 68.546875 -26.375 63.453125 -21.375 C 58.359375 -16.382812 54.238281 -10.648438 51.09375 -4.171875 C 47.945312 2.304688 46.375 8.878906 46.375 15.546875 C 46.375 22.585938 47.992188 28.601562 51.234375 33.59375 C 54.472656 38.59375 59.890625 43.316406 67.484375 47.765625 C 85.066406 43.691406 102.003906 33.644531 118.296875 17.625 C 134.585938 1.613281 150.328125 -20.367188 165.515625 -48.328125 Z M 165.515625 -48.328125"/></g></g></g><g fill-opacity="1" fill="#faf1e1"><g transform="translate(203.318825, 237.576944)"><g><path d="M 91.09375 -72.484375 C 92.570312 -72.109375 93.769531 -71.875 94.6875 -71.78125 C 95.613281 -71.6875 96.820312 -71.640625 98.3125 -71.640625 C 99.976562 -71.640625 101.457031 -71.6875 102.75 -71.78125 C 104.039062 -71.875 105.707031 -72.109375 107.75 -72.484375 L 83.859375 -32.765625 C 79.785156 -25.921875 76.6875 -20.132812 74.5625 -15.40625 C 72.4375 -10.6875 71.375 -7.3125 71.375 -5.28125 C 71.375 -1.019531 73.128906 1.109375 76.640625 1.109375 C 78.492188 1.109375 80.898438 0 83.859375 -2.21875 C 86.828125 -4.4375 90.207031 -7.488281 94 -11.375 C 97.800781 -15.269531 101.78125 -19.804688 105.9375 -24.984375 C 110.101562 -30.171875 114.222656 -35.820312 118.296875 -41.9375 C 118.671875 -42.863281 119.132812 -43.328125 119.6875 -43.328125 C 120.238281 -43.328125 120.515625 -43.046875 120.515625 -42.484375 C 120.515625 -42.296875 119.820312 -41.179688 118.4375 -39.140625 C 117.050781 -37.109375 115.335938 -34.75 113.296875 -32.0625 C 111.265625 -29.382812 109.09375 -26.5625 106.78125 -23.59375 C 104.46875 -20.632812 102.476562 -18.140625 100.8125 -16.109375 C 94.882812 -9.066406 90.019531 -4.109375 86.21875 -1.234375 C 82.425781 1.628906 78.863281 3.0625 75.53125 3.0625 C 71.269531 3.0625 67.84375 1.535156 65.25 -1.515625 C 62.664062 -4.578125 61.375 -8.515625 61.375 -13.328125 C 61.375 -16.109375 61.695312 -18.65625 62.34375 -20.96875 C 62.988281 -23.28125 64.144531 -26.007812 65.8125 -29.15625 C 61.1875 -22.675781 57.207031 -17.398438 53.875 -13.328125 C 50.539062 -9.253906 47.53125 -5.96875 44.84375 -3.46875 C 42.164062 -0.96875 39.757812 0.742188 37.625 1.671875 C 35.5 2.597656 33.328125 3.0625 31.109375 3.0625 C 26.285156 3.0625 22.253906 1.023438 19.015625 -3.046875 C 15.773438 -7.128906 14.15625 -12.316406 14.15625 -18.609375 C 14.15625 -26.941406 17.300781 -35.085938 23.59375 -43.046875 C 29.894531 -51.003906 38.96875 -58.222656 50.8125 -64.703125 C 61.738281 -70.628906 70.441406 -73.59375 76.921875 -73.59375 C 82.472656 -73.59375 85.25 -70.90625 85.25 -65.53125 C 85.25 -63.863281 84.878906 -61.828125 84.140625 -59.421875 Z M 77.203125 -71.640625 C 74.421875 -71.640625 71.175781 -70.53125 67.46875 -68.3125 C 63.769531 -66.09375 59.976562 -63.175781 56.09375 -59.5625 C 52.207031 -55.957031 48.316406 -51.835938 44.421875 -47.203125 C 40.535156 -42.578125 37.113281 -37.90625 34.15625 -33.1875 C 31.195312 -28.46875 28.789062 -23.882812 26.9375 -19.4375 C 25.082031 -15 24.15625 -11.113281 24.15625 -7.78125 C 24.15625 -1.851562 26.75 1.109375 31.9375 1.109375 C 33.789062 1.109375 35.6875 0.601562 37.625 -0.40625 C 39.570312 -1.425781 41.84375 -3.1875 44.4375 -5.6875 C 47.03125 -8.1875 49.945312 -11.378906 53.1875 -15.265625 C 56.425781 -19.160156 60.171875 -24.066406 64.421875 -29.984375 C 77.015625 -46.835938 83.3125 -58.503906 83.3125 -64.984375 C 83.3125 -69.421875 81.273438 -71.640625 77.203125 -71.640625 Z M 77.203125 -71.640625"/></g></g></g><g fill-opacity="1" fill="#faf1e1"><g transform="translate(298.837389, 237.576944)"><g><path d="M 38.328125 -31.65625 C 50.359375 -51.09375 56.375 -63.035156 56.375 -67.484375 C 56.375 -70.253906 55.265625 -71.640625 53.046875 -71.640625 C 51.003906 -71.640625 47.390625 -68.910156 42.203125 -63.453125 C 37.023438 -57.992188 31.566406 -51.003906 25.828125 -42.484375 C 24.710938 -41.191406 24.0625 -40.546875 23.875 -40.546875 C 23.320312 -40.546875 23.046875 -40.820312 23.046875 -41.375 C 23.046875 -41.75 23.234375 -42.117188 23.609375 -42.484375 L 26.109375 -45.828125 C 33.328125 -56.003906 39.0625 -63.175781 43.3125 -67.34375 C 47.570312 -71.507812 51.1875 -73.59375 54.15625 -73.59375 C 57.300781 -73.59375 59.9375 -72.203125 62.0625 -69.421875 C 64.195312 -66.648438 65.265625 -63.316406 65.265625 -59.421875 C 65.265625 -56.097656 64.519531 -52.722656 63.03125 -49.296875 C 61.550781 -45.867188 58.867188 -41.191406 54.984375 -35.265625 C 60.347656 -42.671875 65.019531 -48.828125 69 -53.734375 C 72.988281 -58.640625 76.554688 -62.570312 79.703125 -65.53125 C 82.847656 -68.5 85.671875 -70.582031 88.171875 -71.78125 C 90.671875 -72.988281 93.125 -73.59375 95.53125 -73.59375 C 99.601562 -73.59375 102.976562 -71.972656 105.65625 -68.734375 C 108.34375 -65.492188 109.6875 -61.46875 109.6875 -56.65625 C 109.6875 -54.800781 109.5 -53.039062 109.125 -51.375 C 108.757812 -49.707031 108.113281 -47.804688 107.1875 -45.671875 C 106.269531 -43.546875 105.019531 -41.1875 103.4375 -38.59375 C 101.863281 -36.007812 99.785156 -32.769531 97.203125 -28.875 C 94.421875 -24.625 92.148438 -21.15625 90.390625 -18.46875 C 88.628906 -15.78125 87.332031 -13.601562 86.5 -11.9375 C 85.664062 -10.269531 85.109375 -8.878906 84.828125 -7.765625 C 84.554688 -6.660156 84.421875 -5.550781 84.421875 -4.4375 C 84.421875 -0.738281 86.269531 1.109375 89.96875 1.109375 C 93.675781 1.109375 99.320312 -2.867188 106.90625 -10.828125 C 114.5 -18.785156 122.738281 -29.15625 131.625 -41.9375 C 132 -42.863281 132.460938 -43.328125 133.015625 -43.328125 C 133.578125 -43.328125 133.859375 -43.046875 133.859375 -42.484375 C 133.859375 -42.296875 133.160156 -41.179688 131.765625 -39.140625 C 130.378906 -37.109375 128.664062 -34.75 126.625 -32.0625 C 124.59375 -29.382812 122.421875 -26.5625 120.109375 -23.59375 C 117.796875 -20.632812 115.804688 -18.140625 114.140625 -16.109375 C 108.210938 -9.066406 103.347656 -4.109375 99.546875 -1.234375 C 95.753906 1.628906 92.191406 3.0625 88.859375 3.0625 C 84.609375 3.0625 81.140625 1.488281 78.453125 -1.65625 C 75.765625 -4.8125 74.421875 -8.703125 74.421875 -13.328125 C 74.421875 -15.367188 74.554688 -17.175781 74.828125 -18.75 C 75.109375 -20.320312 75.804688 -22.21875 76.921875 -24.4375 C 78.035156 -26.65625 79.609375 -29.382812 81.640625 -32.625 C 83.679688 -35.863281 86.457031 -40.078125 89.96875 -45.265625 C 94.601562 -51.929688 97.613281 -56.601562 99 -59.28125 C 100.382812 -61.96875 101.078125 -64.238281 101.078125 -66.09375 C 101.078125 -69.789062 99.132812 -71.640625 95.25 -71.640625 C 92.101562 -71.640625 88.351562 -69.925781 84 -66.5 C 79.65625 -63.082031 74.84375 -58.222656 69.5625 -51.921875 C 64.289062 -45.628906 58.644531 -37.898438 52.625 -28.734375 C 46.601562 -19.578125 40.445312 -9.351562 34.15625 1.9375 C 32.488281 1.757812 31.097656 1.625 29.984375 1.53125 C 28.878906 1.4375 27.585938 1.390625 26.109375 1.390625 C 24.617188 1.390625 23.269531 1.390625 22.0625 1.390625 C 20.863281 1.390625 19.25 1.570312 17.21875 1.9375 Z M 38.328125 -31.65625"/></g></g></g><g fill-opacity="1" fill="#faf1e1"><g transform="translate(407.40644, 237.576944)"><g><path d="M 75.25 -73.59375 L 74.140625 -71.640625 L 56.375 -71.640625 L 26.109375 -20 C 22.398438 -13.695312 20.546875 -8.695312 20.546875 -5 C 20.546875 -0.925781 22.675781 1.109375 26.9375 1.109375 C 28.789062 1.109375 31.195312 0.0898438 34.15625 -1.9375 C 37.113281 -3.976562 40.398438 -6.894531 44.015625 -10.6875 C 47.628906 -14.488281 51.515625 -19.023438 55.671875 -24.296875 C 59.835938 -29.578125 64.144531 -35.457031 68.59375 -41.9375 C 69.332031 -42.863281 69.890625 -43.328125 70.265625 -43.328125 C 70.816406 -43.328125 71.09375 -43.046875 71.09375 -42.484375 C 71.09375 -42.117188 70.628906 -41.378906 69.703125 -40.265625 L 63.875 -32.21875 C 54.988281 -20 47.488281 -11.0625 41.375 -5.40625 C 35.269531 0.238281 29.992188 3.0625 25.546875 3.0625 C 21.285156 3.0625 17.71875 1.535156 14.84375 -1.515625 C 11.976562 -4.578125 10.546875 -8.421875 10.546875 -13.046875 C 10.546875 -18.609375 12.953125 -25.367188 17.765625 -33.328125 L 40.546875 -71.640625 L 26.65625 -71.640625 L 28.046875 -73.59375 L 41.65625 -73.59375 L 57.484375 -99.96875 C 58.960938 -99.601562 60.253906 -99.328125 61.359375 -99.140625 C 62.472656 -98.953125 63.773438 -98.859375 65.265625 -98.859375 C 66.742188 -98.859375 68.035156 -98.953125 69.140625 -99.140625 C 70.253906 -99.328125 71.550781 -99.601562 73.03125 -99.96875 L 57.484375 -73.59375 Z M 75.25 -73.59375"/></g></g></g><g fill-opacity="1" fill="#faf1e1"><g transform="translate(453.221992, 237.576944)"><g><path d="M 91.09375 -72.484375 C 92.570312 -72.109375 93.769531 -71.875 94.6875 -71.78125 C 95.613281 -71.6875 96.820312 -71.640625 98.3125 -71.640625 C 99.976562 -71.640625 101.457031 -71.6875 102.75 -71.78125 C 104.039062 -71.875 105.707031 -72.109375 107.75 -72.484375 L 83.859375 -32.765625 C 79.785156 -25.921875 76.6875 -20.132812 74.5625 -15.40625 C 72.4375 -10.6875 71.375 -7.3125 71.375 -5.28125 C 71.375 -1.019531 73.128906 1.109375 76.640625 1.109375 C 78.492188 1.109375 80.898438 0 83.859375 -2.21875 C 86.828125 -4.4375 90.207031 -7.488281 94 -11.375 C 97.800781 -15.269531 101.78125 -19.804688 105.9375 -24.984375 C 110.101562 -30.171875 114.222656 -35.820312 118.296875 -41.9375 C 118.671875 -42.863281 119.132812 -43.328125 119.6875 -43.328125 C 120.238281 -43.328125 120.515625 -43.046875 120.515625 -42.484375 C 120.515625 -42.296875 119.820312 -41.179688 118.4375 -39.140625 C 117.050781 -37.109375 115.335938 -34.75 113.296875 -32.0625 C 111.265625 -29.382812 109.09375 -26.5625 106.78125 -23.59375 C 104.46875 -20.632812 102.476562 -18.140625 100.8125 -16.109375 C 94.882812 -9.066406 90.019531 -4.109375 86.21875 -1.234375 C 82.425781 1.628906 78.863281 3.0625 75.53125 3.0625 C 71.269531 3.0625 67.84375 1.535156 65.25 -1.515625 C 62.664062 -4.578125 61.375 -8.515625 61.375 -13.328125 C 61.375 -16.109375 61.695312 -18.65625 62.34375 -20.96875 C 62.988281 -23.28125 64.144531 -26.007812 65.8125 -29.15625 C 61.1875 -22.675781 57.207031 -17.398438 53.875 -13.328125 C 50.539062 -9.253906 47.53125 -5.96875 44.84375 -3.46875 C 42.164062 -0.96875 39.757812 0.742188 37.625 1.671875 C 35.5 2.597656 33.328125 3.0625 31.109375 3.0625 C 26.285156 3.0625 22.253906 1.023438 19.015625 -3.046875 C 15.773438 -7.128906 14.15625 -12.316406 14.15625 -18.609375 C 14.15625 -26.941406 17.300781 -35.085938 23.59375 -43.046875 C 29.894531 -51.003906 38.96875 -58.222656 50.8125 -64.703125 C 61.738281 -70.628906 70.441406 -73.59375 76.921875 -73.59375 C 82.472656 -73.59375 85.25 -70.90625 85.25 -65.53125 C 85.25 -63.863281 84.878906 -61.828125 84.140625 -59.421875 Z M 77.203125 -71.640625 C 74.421875 -71.640625 71.175781 -70.53125 67.46875 -68.3125 C 63.769531 -66.09375 59.976562 -63.175781 56.09375 -59.5625 C 52.207031 -55.957031 48.316406 -51.835938 44.421875 -47.203125 C 40.535156 -42.578125 37.113281 -37.90625 34.15625 -33.1875 C 31.195312 -28.46875 28.789062 -23.882812 26.9375 -19.4375 C 25.082031 -15 24.15625 -11.113281 24.15625 -7.78125 C 24.15625 -1.851562 26.75 1.109375 31.9375 1.109375 C 33.789062 1.109375 35.6875 0.601562 37.625 -0.40625 C 39.570312 -1.425781 41.84375 -3.1875 44.4375 -5.6875 C 47.03125 -8.1875 49.945312 -11.378906 53.1875 -15.265625 C 56.425781 -19.160156 60.171875 -24.066406 64.421875 -29.984375 C 77.015625 -46.835938 83.3125 -58.503906 83.3125 -64.984375 C 83.3125 -69.421875 81.273438 -71.640625 77.203125 -71.640625 Z M 77.203125 -71.640625"/></g></g></g><g fill-opacity="1" fill="#faf1e1"><g transform="translate(548.740557, 237.576944)"><g><path d="M 39.4375 -34.15625 C 50.539062 -52.113281 56.09375 -63.316406 56.09375 -67.765625 C 56.09375 -70.347656 55.078125 -71.640625 53.046875 -71.640625 C 51.929688 -71.640625 50.398438 -70.851562 48.453125 -69.28125 C 46.515625 -67.707031 44.296875 -65.625 41.796875 -63.03125 C 39.296875 -60.445312 36.65625 -57.394531 33.875 -53.875 C 31.101562 -50.351562 28.328125 -46.554688 25.546875 -42.484375 C 24.429688 -41.191406 23.691406 -40.546875 23.328125 -40.546875 C 22.953125 -40.546875 22.765625 -40.820312 22.765625 -41.375 C 22.765625 -41.75 22.953125 -42.117188 23.328125 -42.484375 L 25.828125 -45.828125 C 32.117188 -54.890625 37.671875 -61.78125 42.484375 -66.5 C 47.296875 -71.226562 51.1875 -73.59375 54.15625 -73.59375 C 57.300781 -73.59375 59.890625 -72.296875 61.921875 -69.703125 C 63.960938 -67.109375 64.984375 -63.773438 64.984375 -59.703125 C 64.984375 -56.003906 64.148438 -52.023438 62.484375 -47.765625 C 60.816406 -43.503906 57.945312 -38.226562 53.875 -31.9375 C 56.46875 -35.082031 58.734375 -37.578125 60.671875 -39.421875 C 62.617188 -41.273438 64.796875 -43.222656 67.203125 -45.265625 C 70.722656 -53.410156 75.023438 -60.164062 80.109375 -65.53125 C 85.203125 -70.90625 89.785156 -73.59375 93.859375 -73.59375 C 94.972656 -73.59375 95.945312 -73.222656 96.78125 -72.484375 C 97.613281 -71.742188 98.03125 -70.910156 98.03125 -69.984375 C 98.03125 -65.722656 91.734375 -59.519531 79.140625 -51.375 C 77.660156 -50.445312 76.179688 -49.519531 74.703125 -48.59375 C 73.222656 -47.664062 71.742188 -46.742188 70.265625 -45.828125 L 68.59375 -44.4375 C 67.300781 -40.363281 66.65625 -36.9375 66.65625 -34.15625 C 66.65625 -30.632812 67.441406 -27.851562 69.015625 -25.8125 C 70.585938 -23.78125 72.664062 -22.765625 75.25 -22.765625 C 78.40625 -22.765625 82.109375 -24.335938 86.359375 -27.484375 C 90.617188 -30.640625 94.601562 -34.898438 98.3125 -40.265625 C 100.15625 -42.304688 101.265625 -43.328125 101.640625 -43.328125 C 102.191406 -43.328125 102.46875 -43.046875 102.46875 -42.484375 C 102.46875 -42.117188 101.632812 -40.914062 99.96875 -38.875 C 98.300781 -36.84375 96.453125 -34.710938 94.421875 -32.484375 C 87.378906 -24.898438 80.898438 -21.109375 74.984375 -21.109375 C 72.015625 -21.109375 69.554688 -22.21875 67.609375 -24.4375 C 65.671875 -26.65625 64.703125 -29.523438 64.703125 -33.046875 C 64.703125 -35.640625 65.257812 -38.878906 66.375 -42.765625 C 63.59375 -40.171875 61.132812 -37.804688 59 -35.671875 C 56.875 -33.546875 54.703125 -30.957031 52.484375 -27.90625 C 50.265625 -24.851562 47.71875 -21.007812 44.84375 -16.375 C 41.976562 -11.75 38.320312 -5.644531 33.875 1.9375 C 32.03125 1.757812 30.550781 1.625 29.4375 1.53125 C 28.320312 1.4375 27.023438 1.390625 25.546875 1.390625 C 24.253906 1.390625 23.050781 1.4375 21.9375 1.53125 C 20.820312 1.625 19.25 1.757812 17.21875 1.9375 Z M 39.4375 -34.15625"/></g></g></g><g fill-opacity="1" fill="#faf1e1"><g transform="translate(625.932901, 237.576944)"><g/></g></g><g fill-opacity="1" fill="#faf1e1"><g transform="translate(675.080501, 237.576944)"><g><path d="M 85.25 -31.65625 C 76.363281 -20.550781 67.753906 -11.988281 59.421875 -5.96875 C 51.097656 0.0507812 43.695312 3.0625 37.21875 3.0625 C 30.738281 3.0625 25.367188 0.792969 21.109375 -3.734375 C 16.847656 -8.273438 14.71875 -13.972656 14.71875 -20.828125 C 14.71875 -36.929688 26.101562 -51.28125 48.875 -63.875 C 60.90625 -70.351562 70.625 -73.59375 78.03125 -73.59375 C 81.175781 -73.59375 83.90625 -72.617188 86.21875 -70.671875 C 88.539062 -68.734375 89.703125 -66.375 89.703125 -63.59375 C 89.703125 -57.113281 85.488281 -51.601562 77.0625 -47.0625 C 68.632812 -42.53125 54.425781 -38.226562 34.4375 -34.15625 C 31.84375 -30.082031 29.664062 -25.914062 27.90625 -21.65625 C 26.144531 -17.40625 25.265625 -13.796875 25.265625 -10.828125 C 25.265625 -7.304688 26.421875 -4.484375 28.734375 -2.359375 C 31.054688 -0.234375 34.066406 0.828125 37.765625 0.828125 C 44.429688 0.828125 52.4375 -2.875 61.78125 -10.28125 C 71.132812 -17.6875 80.625 -27.957031 90.25 -41.09375 C 91.550781 -42.582031 92.476562 -43.328125 93.03125 -43.328125 C 93.394531 -43.328125 93.578125 -43.046875 93.578125 -42.484375 C 93.578125 -42.296875 92.75 -41.09375 91.09375 -38.875 Z M 35.546875 -36.09375 C 42.023438 -37.757812 48.132812 -39.84375 53.875 -42.34375 C 59.613281 -44.84375 64.566406 -47.484375 68.734375 -50.265625 C 72.898438 -53.046875 76.1875 -55.914062 78.59375 -58.875 C 81 -61.832031 82.203125 -64.703125 82.203125 -67.484375 C 82.203125 -70.441406 80.628906 -71.921875 77.484375 -71.921875 C 75.078125 -71.921875 72.253906 -71.039062 69.015625 -69.28125 C 65.773438 -67.53125 62.300781 -65.078125 58.59375 -61.921875 C 54.894531 -58.773438 51.050781 -54.976562 47.0625 -50.53125 C 43.082031 -46.09375 39.242188 -41.28125 35.546875 -36.09375 Z M 35.546875 -36.09375"/></g></g></g><g fill-opacity="1" fill="#faf1e1"><g transform="translate(743.387355, 237.576944)"><g/></g></g><g fill-opacity="1" fill="#faf1e1"><g transform="translate(792.534955, 237.576944)"><g><path d="M 252.15625 -164.40625 C 259.375 -159.03125 264.648438 -153.703125 267.984375 -148.421875 C 271.316406 -143.148438 272.984375 -137.273438 272.984375 -130.796875 C 272.984375 -119.316406 268.816406 -109.78125 260.484375 -102.1875 C 252.148438 -94.601562 241.039062 -90.160156 227.15625 -88.859375 C 236.789062 -84.421875 241.609375 -76 241.609375 -63.59375 C 241.609375 -61.925781 241.5625 -60.394531 241.46875 -59 C 241.375 -57.613281 241.09375 -55.945312 240.625 -54 C 240.164062 -52.0625 239.519531 -49.519531 238.6875 -46.375 C 237.851562 -43.226562 236.601562 -39.0625 234.9375 -33.875 C 231.976562 -24.4375 230.5 -16.941406 230.5 -11.390625 C 230.5 -6.203125 232.207031 -1.941406 235.625 1.390625 C 239.050781 4.722656 243.453125 6.390625 248.828125 6.390625 C 254.566406 6.390625 259.5625 5.09375 263.8125 2.5 C 264.738281 1.945312 265.296875 1.625 265.484375 1.53125 C 265.671875 1.4375 265.945312 1.390625 266.3125 1.390625 C 266.875 1.390625 267.15625 1.757812 267.15625 2.5 C 267.15625 3.050781 266.503906 3.695312 265.203125 4.4375 C 263.910156 5.175781 262.335938 5.867188 260.484375 6.515625 C 258.628906 7.171875 256.59375 7.726562 254.375 8.1875 C 252.15625 8.65625 250.117188 8.890625 248.265625 8.890625 C 244.191406 8.890625 240.394531 7.960938 236.875 6.109375 C 233.363281 4.253906 230.265625 1.753906 227.578125 -1.390625 C 224.890625 -4.535156 222.757812 -8.238281 221.1875 -12.5 C 219.613281 -16.757812 218.828125 -21.296875 218.828125 -26.109375 C 218.828125 -28.140625 218.875 -29.894531 218.96875 -31.375 C 219.0625 -32.863281 219.382812 -34.671875 219.9375 -36.796875 C 220.5 -38.921875 221.285156 -41.695312 222.296875 -45.125 C 223.316406 -48.550781 224.753906 -53.226562 226.609375 -59.15625 C 227.710938 -63.039062 228.585938 -66.554688 229.234375 -69.703125 C 229.890625 -72.847656 230.21875 -75.625 230.21875 -78.03125 C 230.21875 -82.289062 228.734375 -85.898438 225.765625 -88.859375 C 222.617188 -88.304688 218.457031 -88.03125 213.28125 -88.03125 C 209.570312 -88.03125 206.5625 -88.210938 204.25 -88.578125 C 201.9375 -88.953125 200.78125 -89.507812 200.78125 -90.25 C 200.78125 -91.726562 203.925781 -92.46875 210.21875 -92.46875 C 216.332031 -92.46875 221.332031 -91.632812 225.21875 -89.96875 C 230.40625 -90.894531 235.265625 -92.703125 239.796875 -95.390625 C 244.328125 -98.078125 248.164062 -101.316406 251.3125 -105.109375 C 254.46875 -108.898438 256.96875 -113.203125 258.8125 -118.015625 C 260.664062 -122.835938 261.59375 -127.929688 261.59375 -133.296875 C 261.59375 -138.847656 260.4375 -144.21875 258.125 -149.40625 C 255.8125 -154.59375 252.710938 -158.847656 248.828125 -162.171875 C 242.898438 -157.734375 237.570312 -153.015625 232.84375 -148.015625 C 228.125 -143.015625 223.40625 -136.992188 218.6875 -129.953125 C 213.96875 -122.921875 209.0625 -114.453125 203.96875 -104.546875 C 198.882812 -94.648438 193.007812 -82.570312 186.34375 -68.3125 C 182.820312 -61.09375 179.117188 -54.519531 175.234375 -48.59375 C 171.347656 -42.675781 167.039062 -37.304688 162.3125 -32.484375 C 157.59375 -27.671875 152.410156 -23.273438 146.765625 -19.296875 C 141.117188 -15.316406 134.78125 -11.566406 127.75 -8.046875 C 109.414062 1.011719 92.84375 5.546875 78.03125 5.546875 C 63.78125 5.546875 52.488281 1.980469 44.15625 -5.140625 C 35.820312 -12.265625 31.65625 -21.9375 31.65625 -34.15625 C 31.65625 -44.894531 35.632812 -55.910156 43.59375 -67.203125 C 43.226562 -68.316406 43.046875 -69.242188 43.046875 -69.984375 C 43.046875 -70.722656 43.046875 -71.554688 43.046875 -72.484375 C 43.046875 -81.734375 44.894531 -90.847656 48.59375 -99.828125 C 52.300781 -108.804688 57.484375 -117.367188 64.140625 -125.515625 C 70.804688 -133.660156 78.628906 -141.203125 87.609375 -148.140625 C 96.585938 -155.085938 106.351562 -161.109375 116.90625 -166.203125 C 127.457031 -171.296875 138.566406 -175.273438 150.234375 -178.140625 C 161.898438 -181.015625 173.75 -182.453125 185.78125 -182.453125 C 198 -182.453125 209.660156 -181.015625 220.765625 -178.140625 C 231.878906 -175.273438 241.601562 -171.15625 249.9375 -165.78125 C 258.632812 -171.15625 266.5 -175.046875 273.53125 -177.453125 C 280.570312 -179.859375 287.609375 -181.0625 294.640625 -181.0625 C 300.378906 -181.0625 305.65625 -180.085938 310.46875 -178.140625 C 315.28125 -176.203125 319.445312 -173.519531 322.96875 -170.09375 C 326.488281 -166.664062 329.21875 -162.546875 331.15625 -157.734375 C 333.101562 -152.921875 334.078125 -147.738281 334.078125 -142.1875 C 334.078125 -139.59375 333.984375 -137 333.796875 -134.40625 C 333.609375 -131.8125 333.285156 -129.492188 332.828125 -127.453125 C 332.367188 -125.421875 331.90625 -123.753906 331.4375 -122.453125 C 330.976562 -121.160156 330.46875 -120.515625 329.90625 -120.515625 C 329.351562 -120.515625 329.078125 -120.890625 329.078125 -121.640625 C 329.078125 -122.378906 329.171875 -123.117188 329.359375 -123.859375 C 330.285156 -127.191406 330.882812 -130.0625 331.15625 -132.46875 C 331.4375 -134.875 331.578125 -137.554688 331.578125 -140.515625 C 331.578125 -152.179688 328.195312 -161.4375 321.4375 -168.28125 C 314.6875 -175.132812 305.570312 -178.5625 294.09375 -178.5625 C 287.613281 -178.5625 280.945312 -177.40625 274.09375 -175.09375 C 267.238281 -172.78125 259.925781 -169.21875 252.15625 -164.40625 Z M 246.59375 -163.84375 C 239.75 -168.84375 230.957031 -172.773438 220.21875 -175.640625 C 209.476562 -178.515625 198.09375 -179.953125 186.0625 -179.953125 C 170.132812 -179.953125 154.582031 -177.128906 139.40625 -171.484375 C 124.226562 -165.835938 110.4375 -158.195312 98.03125 -148.5625 C 85.625 -138.9375 75.113281 -127.738281 66.5 -114.96875 C 57.894531 -102.195312 52.296875 -88.773438 49.703125 -74.703125 C 54.148438 -79.328125 59.707031 -83.628906 66.375 -87.609375 C 73.039062 -91.585938 79.519531 -94.410156 85.8125 -96.078125 C 89.332031 -102.378906 93.5 -108.117188 98.3125 -113.296875 C 103.125 -118.484375 108.164062 -122.925781 113.4375 -126.625 C 118.71875 -130.332031 124.179688 -133.203125 129.828125 -135.234375 C 135.472656 -137.273438 140.976562 -138.296875 146.34375 -138.296875 C 152.820312 -138.296875 158.144531 -136.210938 162.3125 -132.046875 C 166.476562 -127.878906 168.5625 -122.460938 168.5625 -115.796875 C 168.5625 -108.023438 166.335938 -99.507812 161.890625 -90.25 C 157.453125 -81 151.347656 -71.925781 143.578125 -63.03125 C 123.578125 -40.820312 103.394531 -29.71875 83.03125 -29.71875 C 72.476562 -29.71875 63.820312 -32.675781 57.0625 -38.59375 C 50.3125 -44.519531 45.914062 -52.851562 43.875 -63.59375 C 37.394531 -53.59375 34.15625 -43.875 34.15625 -34.4375 C 34.15625 -22.769531 38.039062 -13.554688 45.8125 -6.796875 C 53.59375 -0.046875 64.148438 3.328125 77.484375 3.328125 C 85.804688 3.328125 93.671875 2.125 101.078125 -0.28125 C 108.484375 -2.6875 115.75 -6.523438 122.875 -11.796875 C 130.007812 -17.078125 137.046875 -23.972656 143.984375 -32.484375 C 150.929688 -41.003906 158.195312 -51.28125 165.78125 -63.3125 C 174.300781 -77.195312 182.078125 -89.367188 189.109375 -99.828125 C 196.148438 -110.296875 202.863281 -119.460938 209.25 -127.328125 C 215.632812 -135.191406 221.832031 -142.039062 227.84375 -147.875 C 233.863281 -153.707031 240.113281 -159.03125 246.59375 -163.84375 Z M 49.15625 -66.09375 C 49.15625 -55.539062 52.207031 -47.207031 58.3125 -41.09375 C 64.425781 -34.988281 72.664062 -31.9375 83.03125 -31.9375 C 93.769531 -31.9375 104.597656 -35.222656 115.515625 -41.796875 C 126.441406 -48.367188 136.628906 -57.765625 146.078125 -69.984375 C 152.554688 -78.128906 157.503906 -86.132812 160.921875 -94 C 164.347656 -101.875 166.0625 -109.140625 166.0625 -115.796875 C 166.0625 -121.535156 164.300781 -126.347656 160.78125 -130.234375 C 157.269531 -134.128906 152.921875 -136.078125 147.734375 -136.078125 C 139.222656 -136.078125 130.289062 -132.648438 120.9375 -125.796875 C 111.59375 -118.953125 103.125 -109.695312 95.53125 -98.03125 C 96.644531 -98.394531 97.617188 -98.578125 98.453125 -98.578125 C 99.285156 -98.578125 100.347656 -98.578125 101.640625 -98.578125 C 109.972656 -98.578125 116.59375 -96.722656 121.5 -93.015625 C 126.40625 -89.316406 128.859375 -84.320312 128.859375 -78.03125 C 128.859375 -75.4375 128.488281 -74.140625 127.75 -74.140625 C 127 -74.140625 126.625 -75.066406 126.625 -76.921875 C 126.8125 -82.847656 124.546875 -87.566406 119.828125 -91.078125 C 115.109375 -94.597656 108.769531 -96.359375 100.8125 -96.359375 C 99.695312 -96.359375 98.628906 -96.3125 97.609375 -96.21875 C 96.585938 -96.125 95.429688 -95.988281 94.140625 -95.8125 C 87.660156 -84.332031 84.421875 -74.519531 84.421875 -66.375 C 84.421875 -62.488281 85.484375 -59.25 87.609375 -56.65625 C 89.742188 -54.0625 92.382812 -52.765625 95.53125 -52.765625 C 96.082031 -52.765625 96.453125 -52.859375 96.640625 -53.046875 L 97.46875 -53.046875 C 98.03125 -53.046875 98.3125 -52.765625 98.3125 -52.203125 C 98.3125 -51.273438 97.382812 -50.8125 95.53125 -50.8125 C 90.90625 -50.8125 87.015625 -52.941406 83.859375 -57.203125 C 80.710938 -61.460938 79.140625 -66.832031 79.140625 -73.3125 C 79.140625 -79.601562 80.898438 -86.359375 84.421875 -93.578125 C 77.941406 -91.546875 71.597656 -88.492188 65.390625 -84.421875 C 59.191406 -80.347656 53.78125 -75.628906 49.15625 -70.265625 Z M 49.15625 -66.09375"/></g></g></g><g fill-opacity="1" fill="#faf1e1"><g transform="translate(1041.604229, 237.576944)"><g><path d="M 85.25 -31.65625 C 76.363281 -20.550781 67.753906 -11.988281 59.421875 -5.96875 C 51.097656 0.0507812 43.695312 3.0625 37.21875 3.0625 C 30.738281 3.0625 25.367188 0.792969 21.109375 -3.734375 C 16.847656 -8.273438 14.71875 -13.972656 14.71875 -20.828125 C 14.71875 -36.929688 26.101562 -51.28125 48.875 -63.875 C 60.90625 -70.351562 70.625 -73.59375 78.03125 -73.59375 C 81.175781 -73.59375 83.90625 -72.617188 86.21875 -70.671875 C 88.539062 -68.734375 89.703125 -66.375 89.703125 -63.59375 C 89.703125 -57.113281 85.488281 -51.601562 77.0625 -47.0625 C 68.632812 -42.53125 54.425781 -38.226562 34.4375 -34.15625 C 31.84375 -30.082031 29.664062 -25.914062 27.90625 -21.65625 C 26.144531 -17.40625 25.265625 -13.796875 25.265625 -10.828125 C 25.265625 -7.304688 26.421875 -4.484375 28.734375 -2.359375 C 31.054688 -0.234375 34.066406 0.828125 37.765625 0.828125 C 44.429688 0.828125 52.4375 -2.875 61.78125 -10.28125 C 71.132812 -17.6875 80.625 -27.957031 90.25 -41.09375 C 91.550781 -42.582031 92.476562 -43.328125 93.03125 -43.328125 C 93.394531 -43.328125 93.578125 -43.046875 93.578125 -42.484375 C 93.578125 -42.296875 92.75 -41.09375 91.09375 -38.875 Z M 35.546875 -36.09375 C 42.023438 -37.757812 48.132812 -39.84375 53.875 -42.34375 C 59.613281 -44.84375 64.566406 -47.484375 68.734375 -50.265625 C 72.898438 -53.046875 76.1875 -55.914062 78.59375 -58.875 C 81 -61.832031 82.203125 -64.703125 82.203125 -67.484375 C 82.203125 -70.441406 80.628906 -71.921875 77.484375 -71.921875 C 75.078125 -71.921875 72.253906 -71.039062 69.015625 -69.28125 C 65.773438 -67.53125 62.300781 -65.078125 58.59375 -61.921875 C 54.894531 -58.773438 51.050781 -54.976562 47.0625 -50.53125 C 43.082031 -46.09375 39.242188 -41.28125 35.546875 -36.09375 Z M 35.546875 -36.09375"/></g></g></g><g fill-opacity="1" fill="#faf1e1"><g transform="translate(1109.911083, 237.576944)"><g><path d="M 70.265625 -73.59375 C 73.410156 -73.59375 75.859375 -72.523438 77.609375 -70.390625 C 79.367188 -68.265625 80.25 -65.351562 80.25 -61.65625 C 80.25 -58.5 79.644531 -55.253906 78.4375 -51.921875 C 77.238281 -48.597656 75.710938 -45.59375 73.859375 -42.90625 C 72.015625 -40.21875 69.976562 -37.992188 67.75 -36.234375 C 65.53125 -34.484375 63.40625 -33.609375 61.375 -33.609375 C 59.707031 -33.609375 58.269531 -34.160156 57.0625 -35.265625 C 55.863281 -36.378906 55.265625 -37.863281 55.265625 -39.71875 C 55.265625 -42.488281 56.144531 -44.800781 57.90625 -46.65625 C 59.664062 -48.507812 62.953125 -50.640625 67.765625 -53.046875 C 74.242188 -56.191406 77.484375 -60.351562 77.484375 -65.53125 C 77.484375 -67.382812 76.878906 -68.863281 75.671875 -69.96875 C 74.472656 -71.082031 72.851562 -71.640625 70.8125 -71.640625 C 67.113281 -71.640625 62.71875 -69.460938 57.625 -65.109375 C 52.53125 -60.765625 47.664062 -55.488281 43.03125 -49.28125 C 38.40625 -43.082031 34.519531 -36.507812 31.375 -29.5625 C 28.226562 -22.625 26.65625 -16.65625 26.65625 -11.65625 C 26.65625 -7.769531 27.71875 -4.671875 29.84375 -2.359375 C 31.976562 -0.046875 34.894531 1.109375 38.59375 1.109375 C 41.5625 1.109375 45.035156 0.0898438 49.015625 -1.9375 C 52.992188 -3.976562 57.203125 -6.847656 61.640625 -10.546875 C 66.085938 -14.253906 70.671875 -18.695312 75.390625 -23.875 C 80.117188 -29.0625 84.796875 -34.800781 89.421875 -41.09375 C 90.347656 -42.582031 91.179688 -43.328125 91.921875 -43.328125 C 92.285156 -43.328125 92.46875 -43.046875 92.46875 -42.484375 C 92.46875 -42.296875 91.863281 -41.414062 90.65625 -39.84375 C 89.457031 -38.269531 87.929688 -36.375 86.078125 -34.15625 C 84.234375 -31.9375 82.195312 -29.53125 79.96875 -26.9375 C 77.75 -24.34375 75.53125 -21.9375 73.3125 -19.71875 C 65.71875 -11.382812 59.238281 -5.503906 53.875 -2.078125 C 48.507812 1.347656 43.140625 3.0625 37.765625 3.0625 C 34.617188 3.0625 31.65625 2.410156 28.875 1.109375 C 26.101562 -0.179688 23.648438 -1.9375 21.515625 -4.15625 C 19.390625 -6.382812 17.722656 -8.976562 16.515625 -11.9375 C 15.316406 -14.90625 14.71875 -18.054688 14.71875 -21.390625 C 14.71875 -29.160156 17.769531 -37.070312 23.875 -45.125 C 29.988281 -53.175781 38.320312 -60.164062 48.875 -66.09375 C 53.132812 -68.5 57.113281 -70.347656 60.8125 -71.640625 C 64.519531 -72.941406 67.671875 -73.59375 70.265625 -73.59375 Z M 70.265625 -73.59375"/></g></g></g><g fill-opacity="1" fill="#faf1e1"><g transform="translate(1177.107283, 237.576944)"><g><path d="M 85.25 -31.65625 C 76.363281 -20.550781 67.753906 -11.988281 59.421875 -5.96875 C 51.097656 0.0507812 43.695312 3.0625 37.21875 3.0625 C 30.738281 3.0625 25.367188 0.792969 21.109375 -3.734375 C 16.847656 -8.273438 14.71875 -13.972656 14.71875 -20.828125 C 14.71875 -36.929688 26.101562 -51.28125 48.875 -63.875 C 60.90625 -70.351562 70.625 -73.59375 78.03125 -73.59375 C 81.175781 -73.59375 83.90625 -72.617188 86.21875 -70.671875 C 88.539062 -68.734375 89.703125 -66.375 89.703125 -63.59375 C 89.703125 -57.113281 85.488281 -51.601562 77.0625 -47.0625 C 68.632812 -42.53125 54.425781 -38.226562 34.4375 -34.15625 C 31.84375 -30.082031 29.664062 -25.914062 27.90625 -21.65625 C 26.144531 -17.40625 25.265625 -13.796875 25.265625 -10.828125 C 25.265625 -7.304688 26.421875 -4.484375 28.734375 -2.359375 C 31.054688 -0.234375 34.066406 0.828125 37.765625 0.828125 C 44.429688 0.828125 52.4375 -2.875 61.78125 -10.28125 C 71.132812 -17.6875 80.625 -27.957031 90.25 -41.09375 C 91.550781 -42.582031 92.476562 -43.328125 93.03125 -43.328125 C 93.394531 -43.328125 93.578125 -43.046875 93.578125 -42.484375 C 93.578125 -42.296875 92.75 -41.09375 91.09375 -38.875 Z M 35.546875 -36.09375 C 42.023438 -37.757812 48.132812 -39.84375 53.875 -42.34375 C 59.613281 -44.84375 64.566406 -47.484375 68.734375 -50.265625 C 72.898438 -53.046875 76.1875 -55.914062 78.59375 -58.875 C 81 -61.832031 82.203125 -64.703125 82.203125 -67.484375 C 82.203125 -70.441406 80.628906 -71.921875 77.484375 -71.921875 C 75.078125 -71.921875 72.253906 -71.039062 69.015625 -69.28125 C 65.773438 -67.53125 62.300781 -65.078125 58.59375 -61.921875 C 54.894531 -58.773438 51.050781 -54.976562 47.0625 -50.53125 C 43.082031 -46.09375 39.242188 -41.28125 35.546875 -36.09375 Z M 35.546875 -36.09375"/></g></g></g><g fill-opacity="1" fill="#faf1e1"><g transform="translate(1245.414137, 237.576944)"><g><path d="M 62.765625 -107.46875 C 64.242188 -107.101562 65.445312 -106.828125 66.375 -106.640625 C 67.300781 -106.453125 68.503906 -106.359375 69.984375 -106.359375 C 72.390625 -106.359375 75.351562 -106.726562 78.875 -107.46875 L 38.59375 -42.484375 C 43.414062 -48.785156 47.535156 -53.972656 50.953125 -58.046875 C 54.378906 -62.117188 57.34375 -65.3125 59.84375 -67.625 C 62.34375 -69.9375 64.5625 -71.507812 66.5 -72.34375 C 68.445312 -73.175781 70.535156 -73.59375 72.765625 -73.59375 C 77.578125 -73.59375 81.601562 -71.507812 84.84375 -67.34375 C 88.082031 -63.175781 89.703125 -58.039062 89.703125 -51.9375 C 89.703125 -37.125 80.535156 -23.695312 62.203125 -11.65625 C 55.722656 -7.40625 49.242188 -3.890625 42.765625 -1.109375 C 36.285156 1.667969 31.101562 3.0625 27.21875 3.0625 C 21.476562 3.0625 18.609375 0.371094 18.609375 -5 C 18.609375 -5.925781 18.695312 -6.851562 18.875 -7.78125 C 19.0625 -8.707031 19.4375 -10 20 -11.65625 L -31.9375 74.984375 C -35.082031 74.242188 -37.675781 73.875 -39.71875 73.875 C -41.195312 73.875 -42.582031 73.960938 -43.875 74.140625 C -45.175781 74.328125 -46.75 74.789062 -48.59375 75.53125 Z M 71.921875 -71.640625 C 68.410156 -71.640625 64.0625 -69.09375 58.875 -64 C 53.6875 -58.914062 46.925781 -50.820312 38.59375 -39.71875 C 26.5625 -23.050781 20.546875 -11.753906 20.546875 -5.828125 C 20.546875 -1.203125 22.675781 1.109375 26.9375 1.109375 C 29.71875 1.109375 32.957031 0 36.65625 -2.21875 C 40.351562 -4.4375 44.144531 -7.351562 48.03125 -10.96875 C 51.925781 -14.582031 55.769531 -18.65625 59.5625 -23.1875 C 63.363281 -27.71875 66.742188 -32.34375 69.703125 -37.0625 C 72.660156 -41.789062 75.066406 -46.421875 76.921875 -50.953125 C 78.773438 -55.492188 79.703125 -59.429688 79.703125 -62.765625 C 79.703125 -65.359375 79.003906 -67.484375 77.609375 -69.140625 C 76.222656 -70.804688 74.328125 -71.640625 71.921875 -71.640625 Z M 71.921875 -71.640625"/></g></g></g><g fill-opacity="1" fill="#faf1e1"><g transform="translate(1323.717738, 237.576944)"><g><path d="M 27.765625 0.5625 C 31.660156 3.144531 34.347656 5.363281 35.828125 7.21875 C 37.304688 9.070312 38.046875 11.203125 38.046875 13.609375 C 38.046875 16.566406 36.976562 18.972656 34.84375 20.828125 C 32.71875 22.679688 29.894531 23.609375 26.375 23.609375 C 24.53125 23.609375 22.265625 23.144531 19.578125 22.21875 C 16.890625 21.289062 14.25 20.175781 11.65625 18.875 C 9.070312 17.582031 6.851562 16.242188 5 14.859375 C 3.144531 13.472656 2.21875 12.316406 2.21875 11.390625 C 2.21875 10.828125 2.5 10.546875 3.0625 10.546875 C 3.238281 10.546875 3.976562 10.914062 5.28125 11.65625 C 10.28125 15.175781 15.273438 16.9375 20.265625 16.9375 C 22.859375 16.9375 25.082031 16.101562 26.9375 14.4375 C 28.789062 12.769531 29.71875 10.828125 29.71875 8.609375 C 29.71875 5.460938 28.050781 2.222656 24.71875 -1.109375 C 21.007812 -4.441406 18.414062 -7.679688 16.9375 -10.828125 C 15.457031 -13.972656 14.71875 -17.398438 14.71875 -21.109375 C 14.71875 -28.878906 17.769531 -36.789062 23.875 -44.84375 C 29.988281 -52.894531 38.320312 -59.976562 48.875 -66.09375 C 57.394531 -71.09375 64.523438 -73.59375 70.265625 -73.59375 C 73.410156 -73.59375 75.859375 -72.523438 77.609375 -70.390625 C 79.367188 -68.265625 80.25 -65.351562 80.25 -61.65625 C 80.25 -58.5 79.644531 -55.253906 78.4375 -51.921875 C 77.238281 -48.597656 75.757812 -45.59375 74 -42.90625 C 72.25 -40.21875 70.257812 -37.992188 68.03125 -36.234375 C 65.8125 -34.484375 63.59375 -33.609375 61.375 -33.609375 C 59.707031 -33.609375 58.269531 -34.160156 57.0625 -35.265625 C 55.863281 -36.378906 55.265625 -37.863281 55.265625 -39.71875 C 55.265625 -42.488281 56.097656 -44.753906 57.765625 -46.515625 C 59.429688 -48.273438 62.671875 -50.453125 67.484375 -53.046875 C 74.148438 -56.191406 77.484375 -60.351562 77.484375 -65.53125 C 77.484375 -67.382812 76.878906 -68.863281 75.671875 -69.96875 C 74.472656 -71.082031 72.851562 -71.640625 70.8125 -71.640625 C 67.113281 -71.640625 62.71875 -69.460938 57.625 -65.109375 C 52.53125 -60.765625 47.664062 -55.445312 43.03125 -49.15625 C 38.40625 -42.863281 34.519531 -36.289062 31.375 -29.4375 C 28.226562 -22.582031 26.65625 -16.566406 26.65625 -11.390625 C 26.65625 -7.679688 27.71875 -4.671875 29.84375 -2.359375 C 31.976562 -0.046875 34.894531 1.109375 38.59375 1.109375 C 42.851562 1.109375 47.484375 -0.414062 52.484375 -3.46875 C 57.484375 -6.519531 62.664062 -10.828125 68.03125 -16.390625 C 70.070312 -18.421875 72.203125 -20.640625 74.421875 -23.046875 C 76.640625 -25.453125 78.722656 -27.8125 80.671875 -30.125 C 82.617188 -32.445312 84.378906 -34.578125 85.953125 -36.515625 C 87.523438 -38.460938 88.679688 -39.988281 89.421875 -41.09375 C 90.347656 -42.582031 91.179688 -43.328125 91.921875 -43.328125 C 92.285156 -43.328125 92.46875 -43.046875 92.46875 -42.484375 C 92.46875 -42.296875 91.863281 -41.414062 90.65625 -39.84375 C 89.457031 -38.269531 87.929688 -36.328125 86.078125 -34.015625 C 84.234375 -31.703125 82.15625 -29.296875 79.84375 -26.796875 C 77.53125 -24.296875 75.351562 -21.9375 73.3125 -19.71875 C 65.539062 -11.382812 59.015625 -5.503906 53.734375 -2.078125 C 48.460938 1.347656 43.140625 3.0625 37.765625 3.0625 C 35.910156 3.0625 34.335938 2.875 33.046875 2.5 C 31.753906 2.125 29.992188 1.476562 27.765625 0.5625 Z M 27.765625 0.5625"/></g></g></g><g fill-opacity="1" fill="#faf1e1"><g transform="translate(1390.913938, 237.576944)"><g><path d="M 91.09375 -72.484375 C 92.570312 -72.109375 93.769531 -71.875 94.6875 -71.78125 C 95.613281 -71.6875 96.820312 -71.640625 98.3125 -71.640625 C 99.976562 -71.640625 101.457031 -71.6875 102.75 -71.78125 C 104.039062 -71.875 105.707031 -72.109375 107.75 -72.484375 L 83.859375 -32.765625 C 79.785156 -25.921875 76.6875 -20.132812 74.5625 -15.40625 C 72.4375 -10.6875 71.375 -7.3125 71.375 -5.28125 C 71.375 -1.019531 73.128906 1.109375 76.640625 1.109375 C 78.492188 1.109375 80.898438 0 83.859375 -2.21875 C 86.828125 -4.4375 90.207031 -7.488281 94 -11.375 C 97.800781 -15.269531 101.78125 -19.804688 105.9375 -24.984375 C 110.101562 -30.171875 114.222656 -35.820312 118.296875 -41.9375 C 118.671875 -42.863281 119.132812 -43.328125 119.6875 -43.328125 C 120.238281 -43.328125 120.515625 -43.046875 120.515625 -42.484375 C 120.515625 -42.296875 119.820312 -41.179688 118.4375 -39.140625 C 117.050781 -37.109375 115.335938 -34.75 113.296875 -32.0625 C 111.265625 -29.382812 109.09375 -26.5625 106.78125 -23.59375 C 104.46875 -20.632812 102.476562 -18.140625 100.8125 -16.109375 C 94.882812 -9.066406 90.019531 -4.109375 86.21875 -1.234375 C 82.425781 1.628906 78.863281 3.0625 75.53125 3.0625 C 71.269531 3.0625 67.84375 1.535156 65.25 -1.515625 C 62.664062 -4.578125 61.375 -8.515625 61.375 -13.328125 C 61.375 -16.109375 61.695312 -18.65625 62.34375 -20.96875 C 62.988281 -23.28125 64.144531 -26.007812 65.8125 -29.15625 C 61.1875 -22.675781 57.207031 -17.398438 53.875 -13.328125 C 50.539062 -9.253906 47.53125 -5.96875 44.84375 -3.46875 C 42.164062 -0.96875 39.757812 0.742188 37.625 1.671875 C 35.5 2.597656 33.328125 3.0625 31.109375 3.0625 C 26.285156 3.0625 22.253906 1.023438 19.015625 -3.046875 C 15.773438 -7.128906 14.15625 -12.316406 14.15625 -18.609375 C 14.15625 -26.941406 17.300781 -35.085938 23.59375 -43.046875 C 29.894531 -51.003906 38.96875 -58.222656 50.8125 -64.703125 C 61.738281 -70.628906 70.441406 -73.59375 76.921875 -73.59375 C 82.472656 -73.59375 85.25 -70.90625 85.25 -65.53125 C 85.25 -63.863281 84.878906 -61.828125 84.140625 -59.421875 Z M 77.203125 -71.640625 C 74.421875 -71.640625 71.175781 -70.53125 67.46875 -68.3125 C 63.769531 -66.09375 59.976562 -63.175781 56.09375 -59.5625 C 52.207031 -55.957031 48.316406 -51.835938 44.421875 -47.203125 C 40.535156 -42.578125 37.113281 -37.90625 34.15625 -33.1875 C 31.195312 -28.46875 28.789062 -23.882812 26.9375 -19.4375 C 25.082031 -15 24.15625 -11.113281 24.15625 -7.78125 C 24.15625 -1.851562 26.75 1.109375 31.9375 1.109375 C 33.789062 1.109375 35.6875 0.601562 37.625 -0.40625 C 39.570312 -1.425781 41.84375 -3.1875 44.4375 -5.6875 C 47.03125 -8.1875 49.945312 -11.378906 53.1875 -15.265625 C 56.425781 -19.160156 60.171875 -24.066406 64.421875 -29.984375 C 77.015625 -46.835938 83.3125 -58.503906 83.3125 -64.984375 C 83.3125 -69.421875 81.273438 -71.640625 77.203125 -71.640625 Z M 80.25 -102.1875 C 81.175781 -102.1875 82.054688 -102.140625 82.890625 -102.046875 C 83.722656 -101.960938 84.691406 -101.828125 85.796875 -101.640625 C 86.910156 -101.453125 88.300781 -101.171875 89.96875 -100.796875 C 91.632812 -100.429688 93.859375 -99.972656 96.640625 -99.421875 C 101.265625 -98.304688 104.5 -97.5625 106.34375 -97.1875 C 108.195312 -96.820312 109.957031 -96.640625 111.625 -96.640625 C 114.59375 -96.640625 117.28125 -97.285156 119.6875 -98.578125 C 120.425781 -98.953125 120.890625 -99.140625 121.078125 -99.140625 C 121.441406 -99.140625 121.625 -98.953125 121.625 -98.578125 C 121.625 -98.023438 120.882812 -97.238281 119.40625 -96.21875 C 117.925781 -95.207031 116.164062 -94.191406 114.125 -93.171875 C 112.09375 -92.148438 110.007812 -91.316406 107.875 -90.671875 C 105.75 -90.023438 104.039062 -89.703125 102.75 -89.703125 C 100.15625 -89.703125 96.171875 -90.347656 90.796875 -91.640625 C 84.878906 -93.117188 80.53125 -94.132812 77.75 -94.6875 C 74.96875 -95.25 72.835938 -95.53125 71.359375 -95.53125 C 69.328125 -95.53125 66.828125 -94.878906 63.859375 -93.578125 C 63.117188 -93.210938 62.703125 -92.984375 62.609375 -92.890625 C 62.515625 -92.796875 62.285156 -92.75 61.921875 -92.75 C 61.367188 -92.75 61.09375 -92.9375 61.09375 -93.3125 C 61.09375 -93.863281 61.832031 -94.648438 63.3125 -95.671875 C 64.789062 -96.691406 66.546875 -97.707031 68.578125 -98.71875 C 70.617188 -99.738281 72.703125 -100.570312 74.828125 -101.21875 C 76.960938 -101.863281 78.769531 -102.1875 80.25 -102.1875 Z M 80.25 -102.1875"/></g></g></g><g fill-opacity="1" fill="#faf1e1"><g transform="translate(1486.432418, 237.576944)"><g><path d="M 68.03125 -22.21875 C 62.289062 -14.070312 56.550781 -7.820312 50.8125 -3.46875 C 45.070312 0.882812 39.613281 3.0625 34.4375 3.0625 C 29.0625 3.0625 24.429688 0.835938 20.546875 -3.609375 C 16.660156 -8.054688 14.71875 -13.425781 14.71875 -19.71875 C 14.71875 -33.789062 23.878906 -47.210938 42.203125 -59.984375 C 48.316406 -64.429688 54.101562 -67.8125 59.5625 -70.125 C 65.03125 -72.4375 69.800781 -73.59375 73.875 -73.59375 C 77.570312 -73.59375 80.4375 -72.476562 82.46875 -70.25 C 84.507812 -68.03125 85.53125 -64.976562 85.53125 -61.09375 C 85.53125 -56.46875 84.003906 -50.679688 80.953125 -43.734375 C 77.898438 -36.796875 73.960938 -30.085938 69.140625 -23.609375 C 70.992188 -22.492188 73.03125 -21.9375 75.25 -21.9375 C 79.320312 -21.9375 84.039062 -23.832031 89.40625 -27.625 C 94.78125 -31.425781 99.226562 -36.007812 102.75 -41.375 C 103.863281 -42.675781 104.601562 -43.328125 104.96875 -43.328125 C 105.34375 -43.328125 105.53125 -43.140625 105.53125 -42.765625 C 105.53125 -42.210938 104.695312 -40.820312 103.03125 -38.59375 C 101.363281 -36.375 99.507812 -34.335938 97.46875 -32.484375 C 89.695312 -24.523438 82.382812 -20.546875 75.53125 -20.546875 C 72.757812 -20.546875 70.257812 -21.101562 68.03125 -22.21875 Z M 81.359375 -50.265625 C 82.847656 -53.410156 83.59375 -56.925781 83.59375 -60.8125 C 83.59375 -68.21875 80.257812 -71.921875 73.59375 -71.921875 C 69.519531 -71.921875 64.75 -69.609375 59.28125 -64.984375 C 53.820312 -60.359375 48.59375 -54.757812 43.59375 -48.1875 C 38.59375 -41.613281 34.378906 -34.710938 30.953125 -27.484375 C 27.535156 -20.265625 25.828125 -13.972656 25.828125 -8.609375 C 25.828125 -5.828125 26.660156 -3.554688 28.328125 -1.796875 C 29.992188 -0.046875 32.125 0.828125 34.71875 0.828125 C 39.53125 0.828125 44.664062 -1.25 50.125 -5.40625 C 55.582031 -9.570312 61.09375 -15.546875 66.65625 -23.328125 C 64.0625 -26.109375 62.765625 -29.070312 62.765625 -32.21875 C 62.765625 -34.4375 63.269531 -36.75 64.28125 -39.15625 C 65.300781 -41.5625 66.550781 -43.828125 68.03125 -45.953125 C 69.519531 -48.085938 71.1875 -49.800781 73.03125 -51.09375 C 74.882812 -52.394531 76.644531 -53.046875 78.3125 -53.046875 C 79.789062 -53.046875 80.804688 -52.117188 81.359375 -50.265625 Z M 81.359375 -50.265625"/></g></g></g></g></g></svg>